<svg xmlns="http://www.w3.org/2000/svg" fill="none" viewBox="0 0 64 64">
  <g filter="url(#a)">
    <path fill="#FF7340" d="M55.744 51.75c.17.257.256.536.256.836 0 .385-.15.728-.448 1.028a1.3 1.3 0 0 1-.96.386H38.08c-.981 0-1.75-.343-2.304-1.029L24.64 39.15v13.114c0 .472-.17.879-.512 1.222a1.657 1.657 0 0 1-1.216.514H9.728c-.47 0-.875-.171-1.216-.514A1.672 1.672 0 0 1 8 52.264V10.736c0-.472.17-.879.512-1.222A1.658 1.658 0 0 1 9.728 9h13.184c.47 0 .875.171 1.216.514.341.343.512.75.512 1.222V22.82l10.112-12.728C35.392 9.364 36.182 9 37.12 9h15.424c.384 0 .704.15.96.45.299.257.448.579.448.964 0 .343-.107.643-.32.9L38.464 29.893l17.28 21.857Z"/>
  </g>
  <defs>
    <filter id="a" width="56" height="53" x="4" y="5" color-interpolation-filters="sRGB" filterUnits="userSpaceOnUse">
      <feFlood flood-opacity="0" result="BackgroundImageFix"/>
      <feColorMatrix in="SourceAlpha" result="hardAlpha" values="0 0 0 0 0 0 0 0 0 0 0 0 0 0 0 0 0 0 127 0"/>
      <feOffset/>
      <feGaussianBlur stdDeviation="2"/>
      <feComposite in2="hardAlpha" operator="out"/>
      <feColorMatrix values="0 0 0 0 0 0 0 0 0 0 0 0 0 0 0 0 0 0 0.25 0"/>
      <feBlend in2="BackgroundImageFix" result="effect1_dropShadow_8_10"/>
      <feBlend in="SourceGraphic" in2="effect1_dropShadow_8_10" result="shape"/>
      <feColorMatrix in="SourceAlpha" result="hardAlpha" values="0 0 0 0 0 0 0 0 0 0 0 0 0 0 0 0 0 0 127 0"/>
      <feOffset dy="4"/>
      <feGaussianBlur stdDeviation="2"/>
      <feComposite in2="hardAlpha" k2="-1" k3="1" operator="arithmetic"/>
      <feColorMatrix values="0 0 0 0 0 0 0 0 0 0 0 0 0 0 0 0 0 0 0.25 0"/>
      <feBlend in2="shape" result="effect2_innerShadow_8_10"/>
    </filter>
  </defs>
</svg>
