<svg xmlns="http://www.w3.org/2000/svg" xmlns:xlink="http://www.w3.org/1999/xlink" viewBox="0 0 491.04 240">
  <defs>
    <path id="reuse-0" fill-opacity=".25" d="M-49.1-24h589.25v288H-49.1z"/>
    <path id="reuse-1" d="M0 0h138v168H0z"/>
  </defs>
  <defs>
    <path id="o" d="M2.72 0v-6.63H.25v-.89H6.2v.9H3.72V0Zm0 0"/>
    <path id="p" d="m4.42-1.75.96.1c-.16.57-.44 1-.85 1.32-.4.3-.92.46-1.55.46a2.5 2.5 0 0 1-1.9-.74 2.89 2.89 0 0 1-.69-2.06 3 3 0 0 1 .7-2.13c.47-.5 1.08-.76 1.83-.76.73 0 1.32.25 1.78.75.47.49.7 1.18.7 2.08v.25H1.35c.03.59.2 1.05.5 1.37.3.31.68.47 1.14.47.34 0 .62-.09.86-.27.24-.17.43-.45.58-.84ZM1.4-3.25h3.05c-.05-.46-.17-.8-.36-1.03-.3-.35-.67-.53-1.14-.53-.43 0-.8.15-1.08.43-.28.29-.44.66-.47 1.13Zm0 0"/>
    <path id="q" d="m.33-1.63.9-.14c.06.37.2.65.43.85.23.19.56.28.98.28.43 0 .74-.08.94-.25.2-.18.31-.38.31-.61 0-.2-.09-.38-.27-.5a3.87 3.87 0 0 0-.93-.31 8.5 8.5 0 0 1-1.42-.44C1-2.88.8-3.05.67-3.27A1.45 1.45 0 0 1 .48-4c0-.24.06-.46.16-.67a1.56 1.56 0 0 1 1.05-.78 3.12 3.12 0 0 1 1.92.08c.32.11.55.28.7.5.16.2.27.48.33.82l-.9.13a1 1 0 0 0-.37-.66c-.18-.15-.46-.23-.82-.23-.43 0-.73.07-.9.22-.19.13-.27.3-.27.48 0 .13.03.24.1.33.07.1.2.18.35.25l.83.23c.64.17 1.1.31 1.36.42.25.12.46.28.6.49.15.21.22.48.22.8 0 .3-.09.59-.26.86-.18.27-.44.48-.78.64-.34.14-.72.21-1.14.21-.71 0-1.25-.14-1.63-.43a2.1 2.1 0 0 1-.7-1.31Zm0 0"/>
    <path id="r" d="m2.7-.83.14.81c-.26.07-.5.1-.7.1-.34 0-.6-.06-.78-.16-.18-.11-.3-.25-.4-.42a3.4 3.4 0 0 1-.1-1.1v-3.13H.19v-.7h.67V-6.8l.92-.54v1.9h.92v.7h-.92v3.2c0 .25.02.43.05.5.03.08.08.14.15.18.07.04.18.06.32.06.1 0 .24 0 .4-.03Zm0 0"/>
    <path id="t" d="M.83 0v-7.52h3.33c.66 0 1.17.07 1.51.2.35.14.63.38.85.73.2.34.3.71.3 1.12 0 .53-.16.99-.5 1.36-.35.37-.88.6-1.6.69.26.12.46.25.6.37.28.28.56.6.82 1L7.45 0H6.2l-1-1.56c-.29-.45-.53-.8-.72-1.03-.18-.24-.35-.41-.5-.5-.14-.1-.3-.18-.45-.2a2.4 2.4 0 0 0-.56-.05H1.8V0Zm.98-4.2h2.14c.46 0 .82-.05 1.07-.14.25-.1.45-.24.59-.44.13-.2.2-.44.2-.69 0-.35-.13-.64-.39-.87-.26-.23-.67-.35-1.22-.35H1.81Zm0 0"/>
    <path id="u" d="M4.27 0v-.8a2 2 0 0 1-1.74.93 2.2 2.2 0 0 1-.9-.2 1.47 1.47 0 0 1-.61-.46 1.66 1.66 0 0 1-.29-.67 4.3 4.3 0 0 1-.06-.88v-3.36h.92v3.02c0 .48.02.8.07.97.05.24.17.43.36.57.18.14.42.2.7.2.27 0 .52-.06.76-.2.25-.14.43-.33.52-.57.1-.25.16-.61.16-1.08v-2.9h.93V0Zm0 0"/>
    <path id="v" d="M.69 0v-5.44h.83v.77c.4-.6.98-.9 1.73-.9.33 0 .63.07.9.18.29.12.5.27.63.47.13.19.23.41.28.67a6 6 0 0 1 .05.9V0h-.92v-3.31c0-.38-.04-.66-.11-.85a.77.77 0 0 0-.38-.43c-.18-.12-.39-.18-.64-.18-.4 0-.74.13-1.03.38-.28.25-.42.73-.42 1.42V0Zm0 0"/>
    <path id="w" d="M.69 0v-5.44h.83v.82c.2-.39.4-.64.57-.75.2-.13.39-.2.6-.2.31 0 .63.1.95.3l-.31.85a1.44 1.44 0 0 0-.69-.19.91.91 0 0 0-.88.69c-.1.32-.15.68-.15 1.08V0Zm0 0"/>
    <path id="T" d="M.81 0v-7.52h2.6c.58 0 1.02.04 1.32.11.44.1.8.28 1.11.54.4.33.7.76.9 1.3.19.52.3 1.1.3 1.77 0 .58-.08 1.08-.21 1.52-.14.44-.31.8-.52 1.1-.2.29-.43.52-.68.68-.25.17-.56.3-.91.38-.34.08-.75.12-1.2.12Zm1-.9h1.6c.5 0 .89-.03 1.17-.12.28-.09.5-.22.67-.4.24-.23.42-.54.55-.94.13-.4.2-.89.2-1.45 0-.8-.13-1.4-.4-1.81-.25-.43-.56-.71-.93-.85-.27-.1-.7-.16-1.28-.16H1.81Zm0 0"/>
    <path id="U" d="M.7-6.45v-1.07h.93v1.07ZM.7 0v-5.44h.93V0Zm0 0"/>
    <path id="V" d="M.69 2.1v-7.54h.84v.7c.2-.28.42-.48.67-.62.25-.13.55-.2.9-.2.48 0 .89.12 1.24.36.36.24.62.58.8 1.01.19.43.28.9.28 1.42 0 .57-.1 1.07-.31 1.52-.2.44-.5.78-.88 1.02-.37.23-.77.35-1.18.35-.32 0-.6-.06-.85-.18-.24-.14-.43-.3-.6-.5v2.65Zm.84-4.79c0 .7.14 1.22.42 1.55.28.34.63.5 1.03.5.41 0 .76-.17 1.05-.52.29-.34.44-.88.44-1.6 0-.7-.14-1.22-.42-1.57a1.27 1.27 0 0 0-1.02-.51c-.4 0-.74.18-1.05.54-.3.37-.45.9-.45 1.61Zm0 0"/>
    <path id="W" d="M.67 0v-7.52h.92V0Zm0 0"/>
    <path id="X" d="M4.25-.67c-.34.3-.68.5-1 .62-.31.12-.65.17-1.02.17C1.64.13 1.18-.02.86-.3a1.44 1.44 0 0 1-.48-1.13c0-.26.06-.5.18-.72.13-.22.28-.4.47-.53.2-.13.42-.24.67-.31.18-.05.45-.1.82-.14a8 8 0 0 0 1.65-.31v-.25c0-.38-.09-.64-.26-.78-.23-.21-.58-.32-1.05-.32-.44 0-.76.08-.97.24-.2.15-.35.41-.45.8l-.9-.13c.07-.38.21-.7.4-.94.19-.24.45-.42.81-.54.36-.13.78-.2 1.25-.2.46 0 .83.07 1.13.18.28.1.5.24.64.4.13.16.23.37.3.63l.02.84v1.24c0 .85.02 1.4.07 1.62a2 2 0 0 0 .23.66h-.95a1.6 1.6 0 0 1-.19-.67Zm-.08-2.06c-.33.13-.84.25-1.51.34-.38.06-.64.13-.8.2a.83.83 0 0 0-.38.3.72.72 0 0 0-.12.42c0 .25.1.46.28.63.19.16.46.25.83.25.35 0 .66-.08.94-.24.28-.15.48-.37.6-.64.1-.2.16-.51.16-.92Zm0 0"/>
    <path id="Y" d="m.66 2.1-.11-.87c.2.06.37.08.53.08.2 0 .37-.04.48-.1a.82.82 0 0 0 .31-.29 7.51 7.51 0 0 0 .36-.9L.17-5.44h.99L2.3-2.3c.14.4.27.83.39 1.27.1-.43.23-.84.39-1.24l1.15-3.17h.93L3.09.1c-.23.6-.4 1-.53 1.24-.15.3-.34.52-.56.65a1.3 1.3 0 0 1-.75.22c-.18 0-.38-.04-.6-.1Zm0 0"/>
    <path id="aj" d="M2.95 0 .05-7.52h1.07l1.96 5.46.39 1.23c.11-.4.25-.81.4-1.23l2.04-5.46h1.01L3.98 0Zm0 0"/>
    <path id="ak" d="M4.22 0v-.69c-.34.55-.85.81-1.52.81-.43 0-.84-.12-1.2-.35a2.29 2.29 0 0 1-.84-1c-.2-.43-.3-.93-.3-1.49 0-.54.09-1.03.27-1.47a2.17 2.17 0 0 1 2.03-1.37 1.73 1.73 0 0 1 1.5.75v-2.7h.92V0Zm-2.9-2.72c0 .7.14 1.22.43 1.56.29.35.64.52 1.05.52.4 0 .73-.16 1.01-.48.28-.34.42-.84.42-1.52 0-.75-.14-1.3-.43-1.64a1.3 1.3 0 0 0-1.05-.52c-.4 0-.75.17-1.03.5-.27.34-.4.86-.4 1.58Zm0 0"/>
    <path id="al" d="M.34-2.72c0-1 .28-1.76.85-2.25.47-.4 1.04-.6 1.72-.6.75 0 1.36.25 1.82.74.48.5.72 1.17.72 2.03 0 .7-.1 1.25-.33 1.66-.2.4-.51.71-.92.94-.4.22-.83.33-1.3.33-.76 0-1.38-.25-1.85-.74-.47-.49-.7-1.2-.7-2.1Zm.96 0c0 .7.15 1.22.45 1.56.3.35.69.52 1.16.52.45 0 .83-.17 1.14-.52.3-.35.45-.88.45-1.59 0-.68-.16-1.19-.47-1.53-.3-.34-.68-.52-1.12-.52-.47 0-.86.17-1.16.52-.3.34-.45.87-.45 1.56Zm0 0"/>
    <path id="am" d="m4.25-2 .9.13A2.4 2.4 0 0 1 4.4-.42c-.4.36-.9.53-1.5.53-.75 0-1.35-.24-1.81-.73C.63-1.1.4-1.8.4-2.7c0-.58.1-1.09.3-1.52.19-.45.49-.79.88-1 .4-.22.83-.33 1.3-.33.6 0 1.08.15 1.45.45.38.3.62.72.72 1.27l-.89.14a1.5 1.5 0 0 0-.45-.83 1.18 1.18 0 0 0-.8-.28c-.46 0-.83.17-1.12.5-.3.33-.44.86-.44 1.58 0 .74.14 1.27.42 1.6.28.33.65.49 1.1.49.36 0 .66-.11.9-.33.24-.22.4-.56.47-1.03Zm0 0"/>
    <path id="x" d="m5.3-2.27.84.22a2.9 2.9 0 0 1-.97 1.61c-.46.37-1.03.55-1.7.55-.69 0-1.25-.14-1.69-.42a2.63 2.63 0 0 1-1-1.22 4.57 4.57 0 0 1 .05-3.5c.26-.5.62-.88 1.1-1.13.47-.25 1-.39 1.55-.39.65 0 1.2.17 1.63.5.44.33.75.78.92 1.38l-.84.19c-.15-.47-.36-.8-.64-1.02a1.7 1.7 0 0 0-1.08-.33c-.5 0-.9.12-1.24.36-.33.24-.57.56-.7.97a4.1 4.1 0 0 0 .03 2.67c.17.4.42.71.75.9.33.2.7.3 1.1.3.47 0 .88-.13 1.2-.4.33-.28.56-.7.69-1.24Zm0 0"/>
    <path id="y" d="m.56 1.8-.1-.74c.18.04.34.06.46.06.18 0 .32-.03.42-.09A.8.8 0 0 0 1.61.8a11.9 11.9 0 0 0 .31-.78L.14-4.68H1l.97 2.71c.12.34.24.7.34 1.08.08-.35.19-.7.31-1.06l1-2.72h.8L2.64.08c-.19.5-.34.86-.44 1.06-.15.26-.3.45-.48.56-.18.13-.4.2-.66.2a1.6 1.6 0 0 1-.5-.1Zm0 0"/>
    <path id="z" d="M.6 1.78v-6.45h.71v.6c.17-.23.35-.4.56-.52.22-.12.49-.18.8-.18a1.82 1.82 0 0 1 1.74 1.18c.15.37.23.78.23 1.21 0 .49-.09.92-.26 1.3-.17.39-.42.69-.74.9C3.32 0 2.97.1 2.61.1c-.26 0-.5-.06-.7-.17a1.63 1.63 0 0 1-.52-.42v2.26Zm.71-4.1c0 .61.12 1.06.36 1.35.25.28.55.42.9.42.34 0 .63-.14.88-.43.26-.3.4-.77.4-1.4 0-.59-.13-1.03-.38-1.32-.24-.3-.53-.46-.88-.46-.33 0-.63.17-.89.49-.26.31-.39.76-.39 1.36Zm0 0"/>
    <path id="A" d="M.58 0v-4.67h.72v.72c.17-.34.34-.55.5-.66.15-.1.32-.16.51-.16.26 0 .53.09.81.25l-.28.74a1.11 1.11 0 0 0-.57-.17.8.8 0 0 0-.47.15.89.89 0 0 0-.3.44c-.09.28-.13.59-.13.92V0Zm0 0"/>
    <path id="B" d="m3.78-1.5.83.1a2.1 2.1 0 0 1-.74 1.12C3.54-.02 3.1.1 2.55.1 1.87.1 1.33-.1.92-.52a2.5 2.5 0 0 1-.6-1.78c0-.78.21-1.38.62-1.8.4-.45.93-.67 1.58-.67.62 0 1.12.22 1.51.64.4.42.6 1.02.6 1.79v.21H1.13c.03.52.18.9.44 1.18.26.27.58.4.98.4.3 0 .54-.07.74-.22.2-.15.36-.4.48-.73Zm-2.6-1.28H3.8c-.03-.4-.14-.7-.3-.9-.25-.3-.58-.44-.98-.44-.37 0-.68.12-.93.37-.24.24-.37.56-.4.97Zm0 0"/>
    <path id="C" d="m.28-1.4.78-.12c.04.32.16.56.36.72.2.17.49.25.85.25s.63-.07.8-.22a.65.65 0 0 0 .27-.51.46.46 0 0 0-.23-.42 4.05 4.05 0 0 0-.81-.28 7.6 7.6 0 0 1-1.22-.38A1.15 1.15 0 0 1 .4-3.42c0-.2.04-.4.14-.58.1-.18.22-.33.39-.45.12-.09.29-.16.5-.22a2.72 2.72 0 0 1 1.64.06c.28.1.49.25.62.42.14.18.23.42.28.72l-.78.11a.82.82 0 0 0-.3-.56 1.1 1.1 0 0 0-.71-.2c-.37 0-.63.06-.78.18-.16.12-.24.26-.24.42 0 .11.03.2.1.27.06.1.16.17.3.22.08.03.3.1.7.2.56.15.95.27 1.17.36.22.1.4.24.53.42a1.3 1.3 0 0 1-.05 1.42 1.6 1.6 0 0 1-.67.55c-.28.13-.6.19-.98.19C1.66.1 1.2-.02.87-.27a1.78 1.78 0 0 1-.59-1.12Zm0 0"/>
    <path id="E" d="m0 .1 1.88-6.65h.62L.64.11Zm0 0"/>
    <path id="F" d="M.69 0v-6.44h2.44c.42 0 .75.03.98.07.31.05.57.15.78.3.22.14.4.35.52.62.13.26.2.55.2.87 0 .56-.18 1.02-.53 1.4-.35.37-.97.56-1.88.56H1.55V0Zm.86-3.38h1.67c.54 0 .92-.1 1.15-.3.24-.21.36-.5.36-.87 0-.27-.07-.5-.2-.68a.97.97 0 0 0-.55-.4c-.13-.03-.4-.06-.8-.06H1.56Zm0 0"/>
    <path id="G" d="M.58 0v-6.44h.78V0Zm0 0"/>
    <path id="H" d="M3.64-.58c-.3.25-.57.43-.84.53-.28.1-.57.16-.88.16-.51 0-.9-.13-1.19-.38-.27-.25-.4-.57-.4-.96a1.3 1.3 0 0 1 .56-1.08c.16-.12.35-.2.56-.27l.7-.1a6.1 6.1 0 0 0 1.43-.29v-.2c0-.32-.08-.55-.22-.67-.21-.2-.51-.29-.9-.29-.38 0-.66.08-.83.2-.18.13-.31.36-.4.7l-.76-.1c.06-.33.17-.6.33-.8.16-.2.4-.36.7-.46a3.1 3.1 0 0 1 1.06-.18c.4 0 .73.05.97.14.25.1.43.22.55.36.12.14.2.32.25.54.03.13.04.37.04.71v1.07c0 .73.02 1.2.05 1.39.03.2.1.38.2.56H3.8a1.54 1.54 0 0 1-.16-.58Zm-.06-1.76c-.3.11-.73.21-1.3.3a3 3 0 0 0-.69.17.63.63 0 0 0-.3.25.69.69 0 0 0-.12.37c0 .21.08.39.24.53.15.14.39.2.7.2.3 0 .57-.06.81-.2.24-.13.42-.32.53-.55.09-.17.13-.43.13-.78Zm0 0"/>
    <path id="I" d="M1.45 0 .03-4.67h.81l.75 2.7.27 1c0-.05.1-.37.25-.97l.73-2.73h.82l.7 2.72.23.89.27-.9.8-2.71h.76L4.97 0h-.81L3.4-2.8l-.2-.8L2.29 0Zm0 0"/>
    <path id="J" d="M.6-5.53v-.9h.8v.9ZM.6 0v-4.67h.8V0Zm0 0"/>
    <path id="K" d="m.45.4.77.1c.03.24.12.41.26.52.2.14.47.21.82.21.36 0 .64-.07.84-.21.2-.15.33-.36.4-.61.05-.17.06-.5.05-1.02-.34.4-.77.61-1.28.61-.65 0-1.15-.23-1.5-.69A2.74 2.74 0 0 1 .3-2.36c0-.44.08-.86.23-1.23a1.9 1.9 0 0 1 1.78-1.18c.55 0 1 .22 1.36.66v-.56h.74v4.03C4.4.09 4.33.6 4.17.9c-.15.3-.38.54-.7.71-.31.18-.7.27-1.17.27-.57 0-1.02-.12-1.36-.37C.6 1.27.44.89.45.39Zm.66-2.82c0 .62.12 1.06.36 1.34s.54.42.9.42c.37 0 .68-.14.93-.42.25-.28.37-.72.37-1.31 0-.57-.13-1-.39-1.3a1.16 1.16 0 0 0-1.81 0c-.24.28-.36.7-.36 1.27Zm0 0"/>
    <path id="L" d="M.6 0v-6.44h.8v2.32c.35-.43.82-.65 1.38-.65.35 0 .64.07.9.2.25.14.43.33.54.57.11.24.17.59.17 1.05V0h-.78v-2.95c0-.4-.09-.68-.27-.86-.16-.19-.4-.28-.71-.28-.25 0-.47.06-.68.18a.94.94 0 0 0-.43.49c-.09.2-.13.5-.13.87V0Zm0 0"/>
    <path id="M" d="m2.33-.7.1.68c-.22.06-.42.08-.59.08-.29 0-.51-.04-.67-.14a.84.84 0 0 1-.34-.36c-.06-.14-.1-.45-.1-.92v-2.69H.16v-.62h.57v-1.16l.8-.47v1.63h.8v.62h-.8v2.72c0 .23 0 .38.03.44s.08.12.14.16c.07.04.15.06.27.06l.36-.03Zm0 0"/>
    <path id="N" d="M.66 0v-6.44h2.42c.49 0 .88.07 1.17.2.3.13.54.33.7.6.18.27.27.55.27.84 0 .28-.08.55-.24.78-.14.25-.37.44-.67.6.39.12.68.3.9.58.21.27.32.59.32.96 0 .31-.07.6-.2.85-.13.26-.28.46-.47.6-.19.14-.42.25-.7.32-.29.07-.64.11-1.05.11Zm.86-3.73H2.9c.37 0 .64-.03.8-.08a.85.85 0 0 0 .5-.31.93.93 0 0 0 .17-.57c0-.22-.06-.4-.16-.56a.81.81 0 0 0-.44-.34c-.19-.07-.51-.1-.98-.1H1.52Zm0 2.96H3.1c.28 0 .48 0 .6-.03.18-.03.34-.08.48-.17.13-.08.24-.2.33-.36.08-.15.12-.33.12-.54 0-.24-.06-.45-.19-.63a.93.93 0 0 0-.51-.36 3.2 3.2 0 0 0-.94-.1H1.52Zm0 0"/>
    <path id="O" d="M.3-2.33c0-.86.24-1.5.72-1.92.4-.34.89-.52 1.46-.52.65 0 1.18.22 1.58.63.4.42.61 1 .61 1.73 0 .6-.1 1.08-.28 1.43-.18.34-.44.61-.78.8-.34.2-.72.29-1.13.29C1.83.1 1.3-.1.9-.52.5-.94.3-1.55.3-2.32Zm.8 0c0 .6.14 1.04.4 1.35.26.29.59.43.98.43.4 0 .73-.14.99-.43.26-.3.39-.76.39-1.38 0-.57-.13-1-.4-1.31-.25-.3-.58-.46-.98-.46s-.72.16-.98.46c-.26.3-.4.74-.4 1.34Zm0 0"/>
    <path id="Z" d="M2.53 0 .05-6.44h.92l1.67 4.67c.13.38.24.73.33 1.07.1-.35.22-.71.36-1.07l1.73-4.67h.88L3.4 0Zm0 0"/>
    <path id="aa" d="M3.66 0v-.69c-.37.53-.86.8-1.49.8-.27 0-.53-.06-.76-.16a1.5 1.5 0 0 1-.55-.4 1.3 1.3 0 0 1-.23-.58c-.04-.16-.05-.4-.05-.75v-2.9h.78v2.6c0 .42.02.7.06.83a.8.8 0 0 0 .3.5c.16.12.37.17.6.17.25 0 .47-.05.68-.17.2-.13.35-.29.44-.5.08-.2.12-.52.12-.92v-2.5h.8V0Zm0 0"/>
    <path id="ab" d="M.69 0v-6.44H2.9c.5 0 .9.03 1.15.1.37.08.68.23.94.45.34.3.6.66.77 1.1.16.45.25.96.25 1.54 0 .5-.06.92-.18 1.3-.11.37-.26.68-.43.93-.18.25-.38.45-.6.6a2.4 2.4 0 0 1-.76.31c-.3.07-.64.11-1.03.11Zm.86-.77h1.37c.43 0 .76-.03 1-.1.24-.09.43-.2.58-.35.2-.2.35-.47.47-.81.11-.35.17-.76.17-1.24 0-.67-.1-1.19-.33-1.54-.22-.37-.49-.61-.81-.74-.23-.1-.6-.14-1.1-.14H1.56Zm0 0"/>
    <path id="ac" d="M.69 0v-6.44h.87l3.38 5.05v-5.05h.83V0h-.88L1.5-5.06V0Zm0 0"/>
    <path id="ad" d="m.4-2.06.8-.08c.04.32.13.59.27.8.14.2.36.37.66.5.28.12.61.18.98.18.32 0 .6-.04.86-.14.25-.1.44-.22.56-.39a.95.95 0 0 0 .19-.56c0-.2-.06-.37-.19-.52-.12-.15-.3-.28-.58-.39a8.92 8.92 0 0 0-1.14-.3 6.08 6.08 0 0 1-1.25-.42c-.3-.15-.53-.35-.69-.59a1.65 1.65 0 0 1 .05-1.72c.19-.28.46-.49.81-.64a3.1 3.1 0 0 1 1.2-.22c.47 0 .89.08 1.26.24.36.15.64.37.83.67.2.3.3.64.32 1.01l-.82.07c-.05-.4-.2-.71-.44-.92-.25-.21-.63-.32-1.13-.32-.5 0-.88.1-1.12.28a.84.84 0 0 0-.36.7c0 .22.08.41.25.55.16.16.6.32 1.28.47.7.16 1.18.3 1.44.4.37.18.65.4.83.67.17.26.26.57.26.92 0 .33-.1.65-.3.97-.2.3-.48.54-.84.7a3.83 3.83 0 0 1-2.7 0C1.29-.32.98-.57.75-.91a2.18 2.18 0 0 1-.34-1.15Zm0 0"/>
    <path id="ae" d="M1.9 0 .1-4.67h.85l1 2.8.3.93c.07-.24.17-.53.3-.87l1.03-2.86h.81L2.63 0Zm0 0"/>
    <path id="an" d="M.78 0v-4.05h-.7v-.62h.7v-.49c0-.32.02-.55.08-.7.08-.2.22-.37.4-.5.2-.12.47-.19.82-.19.22 0 .46.03.73.08l-.12.69c-.16-.03-.31-.05-.46-.05-.24 0-.41.06-.51.16-.1.1-.16.3-.16.58v.42h.92v.62h-.92V0Zm0 0"/>
    <path id="ao" d="M.6 0v-4.67h.7v.65a1.62 1.62 0 0 1 1.42-.75c.34 0 .62.08.84.22.22.14.38.34.47.6.38-.54.85-.82 1.44-.82.47 0 .83.14 1.08.4.25.25.37.64.37 1.17V0h-.8v-2.94c0-.32-.02-.55-.07-.69a.62.62 0 0 0-.27-.32.83.83 0 0 0-.48-.14c-.33 0-.6.1-.82.32-.21.22-.32.57-.32 1.05V0h-.8v-3.03c0-.35-.06-.62-.19-.8-.12-.17-.33-.26-.62-.26a1.1 1.1 0 0 0-1.03.7 2.8 2.8 0 0 0-.13.97V0Zm0 0"/>
    <path id="ar" d="M3.36-6.52v6.08h1.48c.1 0 .18.03.22.07.04.04.07.09.07.15s-.03.12-.07.16c-.04.04-.11.06-.22.06H1.45c-.1 0-.18-.02-.22-.06a.2.2 0 0 1-.06-.16.2.2 0 0 1 .06-.15c.04-.04.12-.07.22-.07h1.49v-5.48l-1.4.44a.56.56 0 0 1-.17.03.18.18 0 0 1-.14-.07.2.2 0 0 1-.06-.15c0-.05.02-.1.05-.14a.48.48 0 0 1 .17-.1Zm0 0"/>
    <path id="as" d="M1.3-.44h3.3v-.15c0-.1.03-.18.07-.22a.2.2 0 0 1 .16-.08.2.2 0 0 1 .15.08c.04.04.07.11.07.22V0H.88v-.64c.87-.78 1.72-1.58 2.56-2.4.38-.37.64-.66.78-.83.14-.18.24-.34.3-.47.05-.14.07-.27.07-.41 0-.36-.15-.69-.45-.97-.3-.29-.65-.44-1.06-.44-.38 0-.71.11-1 .33-.3.22-.48.49-.56.8-.03.08-.05.14-.08.16a.2.2 0 0 1-.14.06.2.2 0 0 1-.16-.07.22.22 0 0 1-.05-.14c0-.16.09-.39.27-.67a2.14 2.14 0 0 1 1.72-.9c.53 0 .99.18 1.37.56.39.37.58.8.58 1.26 0 .2-.03.39-.1.55-.05.17-.16.35-.32.55A48.46 48.46 0 0 1 1.3-.47Zm0 0"/>
    <path id="at" d="M4.6-5.8V-6H1.51v.38c0 .1-.03.18-.07.23a.2.2 0 0 1-.15.06.2.2 0 0 1-.16-.06c-.04-.05-.06-.13-.06-.24v-.8h3.95v.68L3.3-.2c-.03.08-.06.14-.1.17a.22.22 0 0 1-.12.05.2.2 0 0 1-.16-.07.18.18 0 0 1-.06-.14c0-.04 0-.1.03-.15Zm0 0"/>
    <path id="au" d="M3.06-1.23h.19c.19 0 .35.07.48.2.14.14.2.3.2.48 0 .2-.06.37-.2.5-.13.14-.3.2-.48.2h-.19a.72.72 0 0 1-.5-.2.65.65 0 0 1-.2-.48c0-.2.07-.36.2-.5.15-.13.31-.2.5-.2Zm0 0"/>
    <path id="av" d="M5.13-3.75v1.06a3.4 3.4 0 0 1-.66 2.2 1.6 1.6 0 0 1-1.31.65 1.67 1.67 0 0 1-1.28-.58 3.63 3.63 0 0 1-.7-2.27v-1.06c0-.93.21-1.66.65-2.2a1.7 1.7 0 0 1 2.03-.48c.22.1.41.24.58.41.1.12.2.3.31.55.13.25.21.48.27.69.07.3.1.64.1 1.03Zm-.43.06a3.73 3.73 0 0 0-.56-1.98c-.09-.12-.2-.21-.34-.3-.2-.12-.4-.19-.66-.19-.48 0-.85.25-1.12.75-.28.5-.41 1.07-.41 1.72v.94a3.6 3.6 0 0 0 .56 1.98c.08.12.2.22.33.3.2.13.41.19.66.19.47 0 .85-.24 1.12-.74.28-.5.42-1.07.42-1.73Zm0 0"/>
    <path id="aw" d="M3.06-4.44h.19c.19 0 .35.07.48.2.14.14.2.3.2.49 0 .2-.06.37-.2.5-.13.14-.3.2-.48.2h-.19a.7.7 0 0 1-.5-.2.65.65 0 0 1-.2-.48c0-.21.07-.38.2-.5.15-.14.31-.2.5-.2Zm0 3.2h.19c.19 0 .35.08.48.2.14.15.2.3.2.5s-.06.36-.2.5c-.13.13-.3.2-.48.2h-.19a.72.72 0 0 1-.5-.2.65.65 0 0 1-.2-.5c0-.19.07-.35.2-.5.15-.12.31-.2.5-.2Zm0 0"/>
    <path id="ax" d="M1.97-6v2.1c.25-.1.49-.17.72-.23.24-.05.46-.07.67-.07.53 0 .98.18 1.34.56.37.37.55.87.55 1.5 0 .68-.2 1.23-.6 1.66-.42.43-.93.64-1.54.64-.42 0-.81-.1-1.19-.29-.26-.12-.5-.28-.72-.46C1.07-.71 1-.8 1-.88a.2.2 0 0 1 .06-.15.2.2 0 0 1 .14-.06c.07 0 .13.03.2.09.51.48 1.07.72 1.68.72.5 0 .9-.17 1.23-.52.33-.34.5-.8.5-1.36 0-.48-.14-.88-.42-1.17-.28-.3-.64-.45-1.08-.45-.45 0-.9.12-1.34.36a.57.57 0 0 1-.24.08.2.2 0 0 1-.15-.07.27.27 0 0 1-.05-.17v-2.86h3c.1 0 .18.03.22.07.05.04.08.09.08.15a.2.2 0 0 1-.08.16c-.04.04-.12.06-.22.06Zm0 0"/>
    <path id="ay" d="M4.03-3.34c.36.18.63.41.81.7.2.28.29.59.29.9 0 .52-.2.96-.58 1.33-.39.38-.85.57-1.4.57a1.93 1.93 0 0 1-1.96-1.9c0-.31.08-.62.26-.9a2 2 0 0 1 .83-.7 2.12 2.12 0 0 1-.69-.57c-.2-.27-.3-.57-.3-.9 0-.48.19-.9.55-1.25.37-.35.8-.53 1.32-.53.5 0 .94.18 1.3.53.37.35.56.77.56 1.25 0 .33-.1.63-.3.9-.15.2-.38.39-.69.57Zm.55-1.46c0-.37-.14-.69-.42-.95-.28-.27-.61-.4-1.02-.4-.4 0-.73.13-1 .4-.27.26-.4.57-.4.94 0 .33.13.63.4.89.27.25.6.37 1 .37.41 0 .76-.12 1.03-.37.27-.26.4-.55.4-.88Zm.1 3.08c0-.37-.14-.7-.43-.98-.3-.28-.66-.42-1.1-.42-.43 0-.8.14-1.1.42-.3.28-.44.6-.44.98 0 .39.14.73.44 1.02.3.28.67.42 1.1.42.43 0 .8-.14 1.08-.42.3-.3.46-.63.46-1.02Zm0 0"/>
    <clipPath id="k">
      <path d="M1 71h138v167.38H1Zm0 0"/>
    </clipPath>
    <clipPath id="c">
      <path d="M.68.52h136.8v166.56H.68Zm0 0"/>
    </clipPath>
    <clipPath id="b">
      <use xlink:href="#reuse-1"/>
    </clipPath>
    <clipPath id="n">
      <path d="M0 65h141v173.38H0Zm0 0"/>
    </clipPath>
    <clipPath id="P">
      <path d="M181 71h138v167.38H181Zm0 0"/>
    </clipPath>
    <clipPath id="e">
      <path d="M.68.52h136.56v166.56H.68Zm0 0"/>
    </clipPath>
    <clipPath id="d">
      <use xlink:href="#reuse-1"/>
    </clipPath>
    <clipPath id="S">
      <path d="M176 65h145v173.38H176Zm0 0"/>
    </clipPath>
    <clipPath id="af">
      <path d="M354 138h137v100.38H354Zm0 0"/>
    </clipPath>
    <clipPath id="g">
      <path d="M0 .96h136.8v99.12H0Zm0 0"/>
    </clipPath>
    <clipPath id="f">
      <path d="M0 0h137v101H0z"/>
    </clipPath>
    <clipPath id="ai">
      <path d="M349 133h142v105.38H349Zm0 0"/>
    </clipPath>
    <clipPath id="i">
      <path d="M.12.08H121V31H.12Zm0 0"/>
    </clipPath>
    <clipPath id="j">
      <path d="M.12.08H121.8v31.68H.12Zm0 0"/>
    </clipPath>
    <clipPath id="h">
      <path d="M0 0h122v32H0z"/>
    </clipPath>
    <mask id="l">
      <g filter="url(#a)">
        <use xlink:href="#reuse-0" fill-opacity=".25"/>
      </g>
    </mask>
    <mask id="Q">
      <g filter="url(#a)">
        <use xlink:href="#reuse-0" fill-opacity=".25"/>
      </g>
    </mask>
    <mask id="ag">
      <g filter="url(#a)">
        <use xlink:href="#reuse-0" fill-opacity=".25"/>
      </g>
    </mask>
    <mask id="ap">
      <g filter="url(#a)">
        <use xlink:href="#reuse-0" fill-opacity=".25"/>
      </g>
    </mask>
    <g id="m" clip-path="url(#b)">
      <path d="M12.87 1.34H125.3a11.14 11.14 0 0 1 7.95 3.3 11.04 11.04 0 0 1 3.08 5.75c.14.72.21 1.45.21 2.2V155a11.14 11.14 0 0 1-3.29 7.95 11.22 11.22 0 0 1-7.95 3.3H12.87a11.14 11.14 0 0 1-7.95-3.3 11.22 11.22 0 0 1-3.3-7.95V12.58a11.14 11.14 0 0 1 3.3-7.95 11.04 11.04 0 0 1 5.76-3.08c.72-.14 1.45-.21 2.19-.21Zm0 0"/>
      <g clip-path="url(#c)">
        <path fill="none" stroke="#000" stroke-width=".74962" d="M12.87 1.34H125.3a11.14 11.14 0 0 1 7.95 3.3 11.04 11.04 0 0 1 3.08 5.75c.14.72.21 1.45.21 2.2V155a11.14 11.14 0 0 1-3.29 7.95 11.22 11.22 0 0 1-7.95 3.3H12.87a11.14 11.14 0 0 1-7.95-3.3 11.22 11.22 0 0 1-3.3-7.95V12.58a11.14 11.14 0 0 1 3.3-7.95 11.04 11.04 0 0 1 5.76-3.08c.72-.14 1.45-.21 2.19-.21Zm0 0"/>
      </g>
    </g>
    <g id="R" clip-path="url(#d)">
      <path d="M12.78 1.34h112.44a11.21 11.21 0 0 1 11.24 11.24v142.43a11.15 11.15 0 0 1-1.9 6.25 11.44 11.44 0 0 1-3.1 3.1 11.17 11.17 0 0 1-6.24 1.9H12.78A11.21 11.21 0 0 1 1.53 155V12.58a11.15 11.15 0 0 1 1.9-6.24 11.27 11.27 0 0 1 9.35-5Zm0 0"/>
      <g clip-path="url(#e)">
        <path fill="none" stroke="#000" stroke-width=".74962" d="M12.78 1.34h112.44a11.21 11.21 0 0 1 11.24 11.24v142.43a11.15 11.15 0 0 1-1.9 6.25 11.44 11.44 0 0 1-3.1 3.1 11.17 11.17 0 0 1-6.24 1.9H12.78A11.21 11.21 0 0 1 1.53 155V12.58a11.15 11.15 0 0 1 1.9-6.24 11.27 11.27 0 0 1 9.35-5Zm0 0"/>
      </g>
    </g>
    <g id="ah" clip-path="url(#f)">
      <path d="M12.19 1.8h112.44a11.14 11.14 0 0 1 7.95 3.3 11.22 11.22 0 0 1 3.3 7.95V88a11.14 11.14 0 0 1-3.3 7.95 11.22 11.22 0 0 1-7.95 3.3H12.2a11.14 11.14 0 0 1-7.95-3.3 11.22 11.22 0 0 1-3.3-7.95V13.05a11.14 11.14 0 0 1 3.3-7.95A11.04 11.04 0 0 1 10 2.02c.72-.15 1.45-.22 2.19-.22Zm0 0"/>
      <g clip-path="url(#g)">
        <path fill="none" stroke="#000" stroke-width=".74962" d="M12.19 1.8h112.44a11.14 11.14 0 0 1 7.95 3.3 11.22 11.22 0 0 1 3.3 7.95V88a11.14 11.14 0 0 1-3.3 7.95 11.22 11.22 0 0 1-7.95 3.3H12.2a11.14 11.14 0 0 1-7.95-3.3 11.22 11.22 0 0 1-3.3-7.95V13.05a11.14 11.14 0 0 1 3.3-7.95A11.04 11.04 0 0 1 10 2.02c.72-.15 1.45-.22 2.19-.22Zm0 0"/>
      </g>
    </g>
    <g id="aq" clip-path="url(#h)">
      <g clip-path="url(#i)">
        <path d="M5.48.87h110.94a4.72 4.72 0 0 1 1.72.34 4.5 4.5 0 0 1 2.78 4.16v20.99a4.72 4.72 0 0 1-.34 1.72 4.5 4.5 0 0 1-4.16 2.78H5.48a4.41 4.41 0 0 1-3.18-1.32 4.24 4.24 0 0 1-.98-1.46 4.28 4.28 0 0 1-.34-1.72V5.37a4.41 4.41 0 0 1 .76-2.5 4.24 4.24 0 0 1 1.24-1.24 4.5 4.5 0 0 1 2.5-.76Zm0 0"/>
      </g>
      <g clip-path="url(#j)">
        <path fill="none" stroke="#000" stroke-width=".74962" d="M5.48.87h110.94a4.72 4.72 0 0 1 1.72.34 4.5 4.5 0 0 1 2.78 4.16v20.99a4.72 4.72 0 0 1-.34 1.72 4.5 4.5 0 0 1-4.16 2.78H5.48a4.41 4.41 0 0 1-3.18-1.32 4.24 4.24 0 0 1-.98-1.46 4.28 4.28 0 0 1-.34-1.72V5.37a4.41 4.41 0 0 1 .76-2.5 4.24 4.24 0 0 1 1.24-1.24 4.5 4.5 0 0 1 2.5-.76Zm0 0"/>
      </g>
    </g>
    <filter id="a" width="1" height="1" x="0" y="0">
      <feColorMatrix color-interpolation-filters="sRGB" values="0 0 0 0 1 0 0 0 0 1 0 0 0 0 1 0 0 0 1 0"/>
    </filter>
  </defs>
  <g clip-path="url(#k)" mask="url(#l)">
    <use xlink:href="#m" transform="translate(1 71)"/>
  </g>
  <path fill="#F5F5F5" d="M12.37 70.09H124.8a11.14 11.14 0 0 1 7.95 3.3 11.22 11.22 0 0 1 3.3 7.94v142.43a11.14 11.14 0 0 1-3.3 7.95 11.04 11.04 0 0 1-5.76 3.08c-.72.14-1.45.21-2.19.21H12.37a11.14 11.14 0 0 1-7.95-3.29 11.04 11.04 0 0 1-3.08-5.76c-.14-.72-.22-1.45-.22-2.19V81.33a11.14 11.14 0 0 1 3.3-7.95 11.22 11.22 0 0 1 7.95-3.29Zm0 0"/>
  <g clip-path="url(#n)">
    <path fill="none" stroke="#666" stroke-width=".74962" d="M12.37 70.09H124.8a11.15 11.15 0 0 1 7.95 3.3 11.22 11.22 0 0 1 3.3 7.94v142.43a11.15 11.15 0 0 1-3.3 7.95 11.04 11.04 0 0 1-5.76 3.08c-.72.14-1.45.21-2.19.21H12.37a11.15 11.15 0 0 1-7.95-3.29 11.04 11.04 0 0 1-3.08-5.76c-.14-.72-.22-1.45-.22-2.19V81.33a11.14 11.14 0 0 1 3.3-7.95 11.22 11.22 0 0 1 7.95-3.29zm0 0"/>
  </g>
  <use xlink:href="#o" x="39.92" y="92.2"/>
  <use xlink:href="#p" x="45.16" y="92.2"/>
  <use xlink:href="#q" x="51" y="92.2"/>
  <use xlink:href="#r" x="56.25" y="92.2"/>
  <use xlink:href="#s" x="59.16" y="92.2"/>
  <use xlink:href="#t" x="62.08" y="92.2"/>
  <use xlink:href="#u" x="69.66" y="92.2"/>
  <use xlink:href="#v" x="75.5" y="92.2"/>
  <use xlink:href="#v" x="81.33" y="92.2"/>
  <use xlink:href="#p" x="87.17" y="92.2"/>
  <use xlink:href="#w" x="93.01" y="92.2"/>
  <path fill="#D5E8D4" stroke="#82B366" stroke-width=".74962" d="M20.61 175.04h95.96a4.71 4.71 0 0 1 1.72.34 4.36 4.36 0 0 1 2.01 1.66 4.51 4.51 0 0 1 .76 2.5v35.98a4.44 4.44 0 0 1-2 3.73 4.37 4.37 0 0 1-2.5.76H20.62a4.4 4.4 0 0 1-2.5-.76 4.45 4.45 0 0 1-2-3.73v-35.98a4.41 4.41 0 0 1 1.32-3.19 4.69 4.69 0 0 1 2.3-1.23c.3-.05.59-.08.88-.08Zm0 0"/>
  <use xlink:href="#x" x="27.22" y="200.15"/>
  <use xlink:href="#y" x="33.72" y="200.15"/>
  <use xlink:href="#z" x="38.21" y="200.15"/>
  <use xlink:href="#A" x="43.22" y="200.15"/>
  <use xlink:href="#B" x="46.21" y="200.15"/>
  <use xlink:href="#C" x="51.22" y="200.15"/>
  <use xlink:href="#C" x="55.71" y="200.15"/>
  <use xlink:href="#D" x="60.21" y="200.15"/>
  <use xlink:href="#E" x="62.71" y="200.15"/>
  <use xlink:href="#D" x="65.21" y="200.15"/>
  <use xlink:href="#F" x="67.71" y="200.15"/>
  <use xlink:href="#G" x="73.71" y="200.15"/>
  <use xlink:href="#H" x="75.71" y="200.15"/>
  <use xlink:href="#y" x="80.71" y="200.15"/>
  <use xlink:href="#I" x="85.21" y="200.15"/>
  <use xlink:href="#A" x="91.7" y="200.15"/>
  <use xlink:href="#J" x="94.7" y="200.15"/>
  <use xlink:href="#K" x="96.7" y="200.15"/>
  <use xlink:href="#L" x="101.7" y="200.15"/>
  <use xlink:href="#M" x="106.7" y="200.15"/>
  <path fill="#DAE8FC" stroke="#6C8EBF" stroke-width=".74962" d="M20.61 107.57h95.96a4.4 4.4 0 0 1 2.5.76 4.5 4.5 0 0 1 2 3.74v35.98a4.4 4.4 0 0 1-.77 2.5 4.69 4.69 0 0 1-1.24 1.24 4.12 4.12 0 0 1-1.62.67 4.4 4.4 0 0 1-.87.09H20.6a4.4 4.4 0 0 1-2.5-.76 4.69 4.69 0 0 1-1.24-1.24 4.12 4.12 0 0 1-.67-1.62 4.4 4.4 0 0 1-.08-.88v-35.98a4.4 4.4 0 0 1 .75-2.5 4.69 4.69 0 0 1 1.25-1.24 4.36 4.36 0 0 1 2.5-.76Zm0 0"/>
  <use xlink:href="#N" x="51.71" y="132.68"/>
  <use xlink:href="#A" x="57.71" y="132.68"/>
  <use xlink:href="#O" x="60.71" y="132.68"/>
  <use xlink:href="#I" x="65.71" y="132.68"/>
  <use xlink:href="#C" x="72.21" y="132.68"/>
  <use xlink:href="#B" x="76.7" y="132.68"/>
  <use xlink:href="#A" x="81.71" y="132.68"/>
  <path fill="none" stroke="#000" stroke-miterlimit="10" stroke-width=".74962" d="M68.59 172.79v-12.75 7.5-8.9"/>
  <path stroke="#000" stroke-width=".74962" d="M70.84 175.04a2.22 2.22 0 0 1-.66 1.58 2.2 2.2 0 0 1-1.59.67 2.23 2.23 0 0 1-2.08-1.4 2.22 2.22 0 0 1 .49-2.44 2.26 2.26 0 0 1 2.45-.5 2.26 2.26 0 0 1 1.39 2.09Zm0 0"/>
  <path stroke="#000" stroke-miterlimit="10" stroke-width=".74962" d="m68.59 153.39 2.62 5.24h-5.25Zm0 0"/>
  <g clip-path="url(#P)" mask="url(#Q)">
    <use xlink:href="#R" transform="translate(181 71)"/>
  </g>
  <path fill="#F5F5F5" d="M192.28 70.09h112.44a11.21 11.21 0 0 1 11.24 11.24v142.43a11.15 11.15 0 0 1-1.89 6.25 11.27 11.27 0 0 1-9.35 5H192.28a11.21 11.21 0 0 1-11.25-11.25V81.33a11.15 11.15 0 0 1 1.9-6.24 11.44 11.44 0 0 1 3.1-3.1 11.17 11.17 0 0 1 6.25-1.9Zm0 0"/>
  <g clip-path="url(#S)">
    <path fill="none" stroke="#666" stroke-width=".74962" d="M192.28 70.09h112.44a11.21 11.21 0 0 1 11.24 11.24v142.43a11.15 11.15 0 0 1-1.89 6.25 11.27 11.27 0 0 1-9.35 5H192.28a11.21 11.21 0 0 1-11.25-11.25V81.33a11.15 11.15 0 0 1 1.9-6.24 11.44 11.44 0 0 1 3.1-3.1 11.17 11.17 0 0 1 6.25-1.9zm0 0"/>
  </g>
  <use xlink:href="#T" x="230.92" y="92.2"/>
  <use xlink:href="#U" x="238.5" y="92.2"/>
  <use xlink:href="#q" x="240.83" y="92.2"/>
  <use xlink:href="#V" x="246.08" y="92.2"/>
  <use xlink:href="#W" x="251.91" y="92.2"/>
  <use xlink:href="#X" x="254.24" y="92.2"/>
  <use xlink:href="#Y" x="260.08" y="92.2"/>
  <path fill="#D5E8D4" stroke="#82B366" stroke-width=".74962" d="M200.52 175.04h95.95a4.72 4.72 0 0 1 1.73.34 4.5 4.5 0 0 1 2.77 4.16v35.98a4.75 4.75 0 0 1-.34 1.72 4.64 4.64 0 0 1-1.66 2.01 4.51 4.51 0 0 1-2.5.76h-95.95a4.41 4.41 0 0 1-3.18-1.31 4.44 4.44 0 0 1-1.32-3.18v-35.98a4.41 4.41 0 0 1 .76-2.5 4.47 4.47 0 0 1 3.74-2Zm0 0"/>
  <use xlink:href="#Z" x="219.45" y="200.15"/>
  <use xlink:href="#J" x="225.29" y="200.15"/>
  <use xlink:href="#A" x="227.29" y="200.15"/>
  <use xlink:href="#M" x="230.28" y="200.15"/>
  <use xlink:href="#aa" x="232.78" y="200.15"/>
  <use xlink:href="#H" x="237.78" y="200.15"/>
  <use xlink:href="#G" x="242.79" y="200.15"/>
  <use xlink:href="#D" x="244.79" y="200.15"/>
  <use xlink:href="#ab" x="247.28" y="200.15"/>
  <use xlink:href="#J" x="253.78" y="200.15"/>
  <use xlink:href="#C" x="255.78" y="200.15"/>
  <use xlink:href="#z" x="260.28" y="200.15"/>
  <use xlink:href="#G" x="265.28" y="200.15"/>
  <use xlink:href="#H" x="267.28" y="200.15"/>
  <use xlink:href="#y" x="272.28" y="200.15"/>
  <path fill="#DAE8FC" stroke="#6C8EBF" stroke-width=".74962" d="M200.52 107.57h95.95a4.41 4.41 0 0 1 3.19 1.32 4.69 4.69 0 0 1 1.23 2.3c.05.29.08.58.08.88v35.98a4.71 4.71 0 0 1-.34 1.72 4.36 4.36 0 0 1-1.66 2.02 4.24 4.24 0 0 1-1.62.67c-.29.06-.58.09-.88.09h-95.95a4.41 4.41 0 0 1-3.18-1.32 4.47 4.47 0 0 1-1.32-3.18v-35.98a4.4 4.4 0 0 1 .76-2.5 4.47 4.47 0 0 1 3.74-2Zm0 0"/>
  <use xlink:href="#Z" x="224.12" y="132.68"/>
  <use xlink:href="#ac" x="230.12" y="132.68"/>
  <use xlink:href="#x" x="236.62" y="132.68"/>
  <use xlink:href="#D" x="243.12" y="132.68"/>
  <use xlink:href="#ad" x="245.62" y="132.68"/>
  <use xlink:href="#B" x="251.62" y="132.68"/>
  <use xlink:href="#A" x="256.62" y="132.68"/>
  <use xlink:href="#ae" x="259.61" y="132.68"/>
  <use xlink:href="#B" x="264.11" y="132.68"/>
  <use xlink:href="#A" x="269.11" y="132.68"/>
  <path fill="none" stroke="#000" stroke-miterlimit="10" stroke-width=".74962" d="M248.5 172.79v-12.75 7.5-8.9"/>
  <path stroke="#000" stroke-width=".74962" d="M250.75 175.04c0 .3-.06.58-.18.85a2.2 2.2 0 0 1-1.21 1.22 2.25 2.25 0 1 1 1.39-2.07Zm0 0"/>
  <path stroke="#000" stroke-miterlimit="10" stroke-width=".74962" d="m248.5 153.39 2.62 5.24h-5.25Zm0 0"/>
  <g clip-path="url(#af)" mask="url(#ag)">
    <use xlink:href="#ah" transform="translate(354 138)"/>
  </g>
  <path fill="#F5F5F5" d="M364.69 137.55h112.44a11.45 11.45 0 0 1 4.3.86 11.33 11.33 0 0 1 6.09 6.09 11.13 11.13 0 0 1 .86 4.3v74.96a11.14 11.14 0 0 1-3.3 7.95 11.04 11.04 0 0 1-5.76 3.08c-.72.14-1.45.21-2.19.21H364.7a11.14 11.14 0 0 1-7.95-3.29 11.04 11.04 0 0 1-3.08-5.76c-.14-.72-.21-1.45-.21-2.19V148.8a11.18 11.18 0 0 1 5-9.35 11.33 11.33 0 0 1 6.24-1.9Zm0 0"/>
  <g clip-path="url(#ai)">
    <path fill="none" stroke="#666" stroke-width=".74962" d="M364.69 137.55h112.44a11.45 11.45 0 0 1 4.3.86 11.33 11.33 0 0 1 6.09 6.09 11.13 11.13 0 0 1 .85 4.3v74.96a11.15 11.15 0 0 1-3.29 7.95 11.04 11.04 0 0 1-5.76 3.08c-.72.14-1.45.21-2.19.21H364.7a11.15 11.15 0 0 1-7.95-3.29 11.04 11.04 0 0 1-3.08-5.76c-.14-.72-.21-1.45-.21-2.19V148.8a11.18 11.18 0 0 1 5-9.35 11.33 11.33 0 0 1 6.24-1.9zm0 0"/>
  </g>
  <use xlink:href="#aj" x="384.17" y="159.67"/>
  <use xlink:href="#U" x="390.98" y="159.67"/>
  <use xlink:href="#ak" x="393.31" y="159.67"/>
  <use xlink:href="#p" x="399.15" y="159.67"/>
  <use xlink:href="#al" x="404.98" y="159.67"/>
  <use xlink:href="#s" x="410.82" y="159.67"/>
  <use xlink:href="#t" x="413.74" y="159.67"/>
  <use xlink:href="#p" x="421.31" y="159.67"/>
  <use xlink:href="#am" x="427.15" y="159.67"/>
  <use xlink:href="#al" x="432.4" y="159.67"/>
  <use xlink:href="#w" x="438.23" y="159.67"/>
  <use xlink:href="#ak" x="441.73" y="159.67"/>
  <use xlink:href="#p" x="447.57" y="159.67"/>
  <use xlink:href="#w" x="453.4" y="159.67"/>
  <path fill="#D5E8D4" stroke="#82B366" stroke-width=".74962" d="M372.93 175.04h95.96a4.71 4.71 0 0 1 2.5.75 4.66 4.66 0 0 1 1.65 2.02 4.56 4.56 0 0 1 .34 1.73v35.98a4.44 4.44 0 0 1-2 3.73 4.55 4.55 0 0 1-2.5.76h-95.95a4.4 4.4 0 0 1-2.5-.76 4.45 4.45 0 0 1-2-3.73v-35.98a4.41 4.41 0 0 1 1.32-3.19 4.69 4.69 0 0 1 2.3-1.23c.3-.05.6-.08.88-.08Zm0 0"/>
  <use xlink:href="#an" x="406.87" y="200.15"/>
  <use xlink:href="#an" x="409.2" y="200.15"/>
  <use xlink:href="#ao" x="411.7" y="200.15"/>
  <use xlink:href="#z" x="419.2" y="200.15"/>
  <use xlink:href="#B" x="424.2" y="200.15"/>
  <use xlink:href="#K" x="429.2" y="200.15"/>
  <path fill="none" stroke="#000" stroke-miterlimit="10" stroke-width=".74962" d="M123.31 130.06h35.23v67.46h31.4"/>
  <path stroke="#000" stroke-width=".74962" d="M123.31 130.06a2.23 2.23 0 0 1-1.38 2.08 2.25 2.25 0 1 1 1.38-2.08Zm0 0"/>
  <path stroke="#000" stroke-miterlimit="10" stroke-width=".74962" d="m195.19 197.52-5.25 2.63v-5.25Zm0 0"/>
  <path fill="none" stroke="#000" stroke-miterlimit="10" stroke-width=".74962" d="M303.22 197.52h59.13"/>
  <path stroke="#000" stroke-width=".74962" d="M303.22 197.52a2.25 2.25 0 0 1-2.25 2.25 2.25 2.25 0 0 1-.86-4.32 2.25 2.25 0 0 1 3.1 2.07Zm0 0"/>
  <path stroke="#000" stroke-miterlimit="10" stroke-width=".74962" d="m367.6 197.52-5.25 2.63v-5.25Zm0 0"/>
  <g mask="url(#ap)">
    <use xlink:href="#aq" transform="translate(279 4)"/>
  </g>
  <path fill="#F5F5F5" stroke="#666" stroke-width=".74962" d="M282.98 2.62h110.95a4.4 4.4 0 0 1 2.5.76 4.45 4.45 0 0 1 2 3.74v20.99a4.41 4.41 0 0 1-1.32 3.18 4.69 4.69 0 0 1-2.3 1.23c-.3.06-.6.09-.88.09H282.98a4.79 4.79 0 0 1-1.72-.34 4.64 4.64 0 0 1-2.02-1.66 4.51 4.51 0 0 1-.76-2.5V7.12a4.44 4.44 0 0 1 2-3.74 4.66 4.66 0 0 1 1.62-.67c.3-.06.59-.09.88-.09Zm0 0"/>
  <g fill="#333">
    <use xlink:href="#ar" x="293.99" y="20.24"/>
    <use xlink:href="#as" x="300.29" y="20.24"/>
    <use xlink:href="#at" x="306.59" y="20.24"/>
    <use xlink:href="#au" x="312.88" y="20.24"/>
    <use xlink:href="#av" x="319.18" y="20.24"/>
    <use xlink:href="#au" x="325.48" y="20.24"/>
    <use xlink:href="#av" x="331.78" y="20.24"/>
    <use xlink:href="#au" x="338.08" y="20.24"/>
    <use xlink:href="#ar" x="344.37" y="20.24"/>
    <use xlink:href="#aw" x="350.67" y="20.24"/>
    <use xlink:href="#ax" x="356.97" y="20.24"/>
    <use xlink:href="#ay" x="363.27" y="20.24"/>
    <use xlink:href="#av" x="369.56" y="20.24"/>
    <use xlink:href="#av" x="375.86" y="20.24"/>
  </g>
  <path fill="none" stroke="#000" stroke-miterlimit="10" stroke-width=".74962" d="M303.22 130.06h35.23V38.7"/>
  <path stroke="#000" stroke-width=".74962" d="M303.22 130.06a2.23 2.23 0 0 1-2.25 2.25 2.25 2.25 0 1 1 2.25-2.25Zm0 0"/>
  <path stroke="#000" stroke-miterlimit="10" stroke-width=".74962" d="m338.45 33.45 2.63 5.25h-5.25Zm0 0"/>
</svg>
